<svg width="136" height="26" viewBox="0 0 136 26" fill="none" xmlns="http://www.w3.org/2000/svg">
<g clip-path="url(#clip0_12_256)">
<path d="M27.7567 1.5708C28.3179 1.5708 28.7692 2.01667 28.7692 2.56452L28.7603 19.4433V20.5419H29.8798H31.7179C32.2762 20.5419 32.7305 20.9877 32.7305 21.5356V24.6421C32.7305 25.1899 32.2762 25.6358 31.7179 25.6358H28.4574C27.1212 25.6358 25.969 25.1579 24.998 24.205C24.0241 23.252 23.54 22.1184 23.54 20.81V2.56744C23.54 2.01958 23.9944 1.57371 24.5526 1.57371H27.7596L27.7567 1.5708Z" fill="white"/>
<path d="M39.9341 25.6649C38.5979 25.6649 37.4428 25.187 36.4688 24.2312C35.4948 23.2753 35.0078 22.1417 35.0078 20.8304V11.1612C35.0078 9.84986 35.4948 8.71626 36.4688 7.76042C37.4428 6.80458 38.5979 6.32666 39.9341 6.32666H50.057C51.417 6.32666 52.5751 6.80458 53.5401 7.76042C54.5022 8.71626 54.9833 9.84986 54.9833 11.1612V20.8304C54.9833 22.1417 54.5022 23.2753 53.5401 24.2312C52.578 25.187 51.417 25.6649 50.057 25.6649H39.9341ZM41.3268 20.5652H49.7868V11.4293H40.2073V20.5652H41.3298H41.3268Z" fill="white"/>
<path d="M0.5 25.0034V3.01911C0.5 2.47125 0.954326 2.02539 1.51258 2.02539H19.4866C20.0449 2.02539 20.4992 2.47125 20.4992 3.01911V6.22467C20.4992 6.77253 20.0449 7.2184 19.4866 7.2184H5.82719V11.4148H17.9544C18.5127 11.4148 18.967 11.8606 18.967 12.4085V15.614C18.967 16.1619 18.5127 16.6078 17.9544 16.6078H5.82719V25.0034C5.82719 25.5513 5.37286 25.9971 4.81461 25.9971H1.51258C0.954326 25.9971 0.5 25.5513 0.5 25.0034Z" fill="white"/>
<path d="M63.4674 25.0063L56.5278 7.68464C56.2665 7.03187 56.7564 6.32664 57.4721 6.32664H60.7592C61.1898 6.32664 61.5758 6.59475 61.7154 6.99398L65.7212 18.3358L69.9229 6.97941C70.0684 6.586 70.4485 6.32373 70.8761 6.32373H74.49C74.9086 6.32373 75.2858 6.57726 75.4372 6.96193L79.9389 18.467L83.6507 7.0173C83.7843 6.60349 84.1763 6.32373 84.6158 6.32373H87.9089C88.6156 6.32373 89.1056 7.0173 88.8561 7.66715L82.2224 24.9888C82.0739 25.3764 81.6968 25.6329 81.2751 25.6329H78.6947C78.2968 25.6329 77.9375 25.4055 77.7712 25.05L72.7142 14.1132L67.8889 25.0355C67.7285 25.3997 67.3633 25.6329 66.9594 25.6329H64.4146C63.9989 25.6329 63.6247 25.3822 63.4703 25.0034L63.4674 25.0063Z" fill="white"/>
<path d="M91.4243 4.13226V0.993723C91.4243 0.445864 91.8786 0 92.4369 0H95.6023C96.1606 0 96.6149 0.445864 96.6149 0.993723V4.13226C96.6149 4.68012 96.1606 5.12598 95.6023 5.12598H92.4369C91.8786 5.12598 91.4243 4.68012 91.4243 4.13226ZM91.4243 24.642V7.32033C91.4243 6.77247 91.8786 6.32661 92.4369 6.32661H95.6023C96.1606 6.32661 96.6149 6.77247 96.6149 7.32033V24.642C96.6149 25.1899 96.1606 25.6357 95.6023 25.6357H92.4369C91.8786 25.6357 91.4243 25.1899 91.4243 24.642Z" fill="white"/>
<path d="M105.045 26C103.688 26 102.524 25.5221 101.55 24.5691C100.576 23.6162 100.092 22.4826 100.092 21.1742V1.35505C100.092 0.807192 100.547 0.361328 101.105 0.361328H104.27C104.829 0.361328 105.283 0.807192 105.283 1.35505V6.68794H111.563C112.122 6.68794 112.576 7.1338 112.576 7.68166V10.7881C112.576 11.336 112.122 11.7819 111.563 11.7819H105.283V19.8074V19.9123C105.283 20.4602 105.737 20.906 106.295 20.906H111.563C112.122 20.906 112.576 21.3519 112.576 21.8998V25.0063C112.576 25.5541 112.122 26 111.563 26H105.045Z" fill="white"/>
<path d="M115.551 25.0033V1.35505C115.551 0.807192 116.006 0.361328 116.564 0.361328H119.729C120.288 0.361328 120.742 0.807192 120.742 1.35505V6.68794H130.58C131.913 6.68794 133.068 7.16586 134.039 8.11878C135.01 9.07462 135.497 10.2053 135.497 11.5138V25.0033C135.497 25.5512 135.043 25.9971 134.485 25.9971H131.319C130.761 25.9971 130.306 25.5512 130.306 25.0033V11.7819H120.739V12.8805V25.0033C120.739 25.5512 120.285 25.9971 119.726 25.9971H116.561C116.003 25.9971 115.548 25.5512 115.548 25.0033H115.551Z" fill="white"/>
</g>
<defs>
<clipPath id="clip0_12_256">
<rect width="135" height="26" fill="white" transform="translate(0.5)"/>
</clipPath>
</defs>
</svg>
