<svg width="64" height="63" viewBox="0 0 64 63" fill="none" xmlns="http://www.w3.org/2000/svg">
<path d="M42.2524 21.0007V40.3709C42.2524 41.27 41.5186 41.9994 40.6141 41.9994H21.0642C21.0642 53.5968 30.5221 63.0001 42.1914 63.0001C53.8588 63.0001 63.3187 53.5989 63.3187 41.9994C63.3187 30.4221 53.8933 21.0331 42.2524 21.0007Z" fill="black"/>
<path d="M22.7045 21.0007H42.1935C42.2138 21.0007 42.2341 21.0007 42.2544 21.0007V5.77448C42.2544 2.58417 39.6527 0 36.4452 0H5.80927C2.60177 0 0 2.58619 0 5.77448V36.2248C0 39.4152 2.60177 41.9993 5.80927 41.9993H21.0642V22.6271C21.0642 21.728 21.798 20.9987 22.7025 20.9987L22.7045 21.0007Z" fill="black"/>
</svg>
